<mxfile host="app.diagrams.net" agent="Mozilla/5.0 (Windows NT 10.0; Win64; x64) AppleWebKit/537.36 (KHTML, like Gecko) Chrome/136.0.0.0 Safari/537.36 Edg/136.0.0.0" version="27.0.9">
  <diagram name="Page-1" id="21wUx6dbiUxk19sSlafF">
    <mxGraphModel dx="1418" dy="1955" grid="1" gridSize="10" guides="1" tooltips="1" connect="1" arrows="1" fold="1" page="1" pageScale="1" pageWidth="827" pageHeight="1169" math="0" shadow="0">
      <root>
        <mxCell id="0" />
        <mxCell id="1" parent="0" />
        <mxCell id="ny4pUltji_NZufVsD4t7-95" value="" style="rounded=1;whiteSpace=wrap;html=1;fillColor=#fff2cc;strokeColor=#d6b656;" parent="1" vertex="1">
          <mxGeometry x="340" y="1930" width="130" height="120" as="geometry" />
        </mxCell>
        <mxCell id="ny4pUltji_NZufVsD4t7-90" value="" style="rounded=1;whiteSpace=wrap;html=1;fillColor=#fff2cc;strokeColor=#d6b656;" parent="1" vertex="1">
          <mxGeometry x="594" y="2070" width="130" height="120" as="geometry" />
        </mxCell>
        <mxCell id="ny4pUltji_NZufVsD4t7-91" value="" style="rounded=1;whiteSpace=wrap;html=1;fillColor=#fff2cc;strokeColor=#d6b656;" parent="1" vertex="1">
          <mxGeometry x="360" y="2120" width="130" height="120" as="geometry" />
        </mxCell>
        <mxCell id="ny4pUltji_NZufVsD4t7-11" value="" style="rounded=1;whiteSpace=wrap;html=1;fillColor=#fff2cc;strokeColor=#d6b656;" parent="1" vertex="1">
          <mxGeometry x="50" y="10" width="740" height="360" as="geometry" />
        </mxCell>
        <mxCell id="ny4pUltji_NZufVsD4t7-10" value="" style="whiteSpace=wrap;html=1;aspect=fixed;" parent="1" vertex="1">
          <mxGeometry x="414" y="30" width="310" height="310" as="geometry" />
        </mxCell>
        <mxCell id="ny4pUltji_NZufVsD4t7-1" value="Client&amp;nbsp;" style="whiteSpace=wrap;html=1;aspect=fixed;" parent="1" vertex="1">
          <mxGeometry x="110" y="140" width="80" height="80" as="geometry" />
        </mxCell>
        <mxCell id="ny4pUltji_NZufVsD4t7-2" value="Service" style="whiteSpace=wrap;html=1;aspect=fixed;" parent="1" vertex="1">
          <mxGeometry x="430" y="140" width="80" height="80" as="geometry" />
        </mxCell>
        <mxCell id="ny4pUltji_NZufVsD4t7-3" value="" style="endArrow=classic;html=1;rounded=0;" parent="1" edge="1">
          <mxGeometry width="50" height="50" relative="1" as="geometry">
            <mxPoint x="210" y="170" as="sourcePoint" />
            <mxPoint x="410" y="170" as="targetPoint" />
          </mxGeometry>
        </mxCell>
        <mxCell id="ny4pUltji_NZufVsD4t7-4" value="" style="endArrow=classic;html=1;rounded=0;" parent="1" edge="1">
          <mxGeometry width="50" height="50" relative="1" as="geometry">
            <mxPoint x="400" y="190" as="sourcePoint" />
            <mxPoint x="210" y="191" as="targetPoint" />
          </mxGeometry>
        </mxCell>
        <mxCell id="ny4pUltji_NZufVsD4t7-5" value="A" style="text;html=1;align=center;verticalAlign=middle;whiteSpace=wrap;rounded=0;fontStyle=1" parent="1" vertex="1">
          <mxGeometry x="280" y="140" width="30" height="20" as="geometry" />
        </mxCell>
        <mxCell id="ny4pUltji_NZufVsD4t7-6" value="B" style="text;html=1;align=center;verticalAlign=middle;whiteSpace=wrap;rounded=0;fontStyle=1" parent="1" vertex="1">
          <mxGeometry x="280" y="200" width="30" height="20" as="geometry" />
        </mxCell>
        <mxCell id="ny4pUltji_NZufVsD4t7-9" value="" style="edgeStyle=orthogonalEdgeStyle;rounded=0;orthogonalLoop=1;jettySize=auto;html=1;" parent="1" source="ny4pUltji_NZufVsD4t7-7" target="ny4pUltji_NZufVsD4t7-8" edge="1">
          <mxGeometry relative="1" as="geometry" />
        </mxCell>
        <mxCell id="ny4pUltji_NZufVsD4t7-7" value="&lt;span style=&quot;color: rgb(0, 0, 0); font-family: Helvetica; font-size: 12px; font-style: normal; font-variant-ligatures: normal; font-variant-caps: normal; font-weight: 400; letter-spacing: normal; orphans: 2; text-align: center; text-indent: 0px; text-transform: none; widows: 2; word-spacing: 0px; -webkit-text-stroke-width: 0px; white-space: normal; background-color: rgb(236, 236, 236); text-decoration-thickness: initial; text-decoration-style: initial; text-decoration-color: initial; float: none; display: inline !important;&quot;&gt;Model&lt;br&gt;Controller&lt;/span&gt;" style="text;whiteSpace=wrap;html=1;" parent="1" vertex="1">
          <mxGeometry x="440" y="240" width="70" height="40" as="geometry" />
        </mxCell>
        <mxCell id="ny4pUltji_NZufVsD4t7-8" value="&lt;div style=&quot;text-align: center;&quot;&gt;Base de données&lt;/div&gt;" style="text;whiteSpace=wrap;html=1;" parent="1" vertex="1">
          <mxGeometry x="590" y="240" width="70" height="40" as="geometry" />
        </mxCell>
        <mxCell id="ny4pUltji_NZufVsD4t7-12" value="" style="rounded=1;whiteSpace=wrap;html=1;fillColor=#fff2cc;strokeColor=#d6b656;" parent="1" vertex="1">
          <mxGeometry x="360" y="430" width="430" height="360" as="geometry" />
        </mxCell>
        <mxCell id="ny4pUltji_NZufVsD4t7-13" value="" style="whiteSpace=wrap;html=1;aspect=fixed;" parent="1" vertex="1">
          <mxGeometry x="414" y="450" width="310" height="310" as="geometry" />
        </mxCell>
        <mxCell id="ny4pUltji_NZufVsD4t7-14" value="Client&amp;nbsp;" style="whiteSpace=wrap;html=1;aspect=fixed;" parent="1" vertex="1">
          <mxGeometry x="110" y="560" width="80" height="80" as="geometry" />
        </mxCell>
        <mxCell id="ny4pUltji_NZufVsD4t7-15" value="Service" style="whiteSpace=wrap;html=1;aspect=fixed;" parent="1" vertex="1">
          <mxGeometry x="430" y="560" width="80" height="80" as="geometry" />
        </mxCell>
        <mxCell id="ny4pUltji_NZufVsD4t7-16" value="" style="endArrow=classic;html=1;rounded=0;" parent="1" edge="1">
          <mxGeometry width="50" height="50" relative="1" as="geometry">
            <mxPoint x="210" y="590" as="sourcePoint" />
            <mxPoint x="410" y="590" as="targetPoint" />
          </mxGeometry>
        </mxCell>
        <mxCell id="ny4pUltji_NZufVsD4t7-17" value="" style="endArrow=classic;html=1;rounded=0;" parent="1" edge="1">
          <mxGeometry width="50" height="50" relative="1" as="geometry">
            <mxPoint x="400" y="610" as="sourcePoint" />
            <mxPoint x="210" y="611" as="targetPoint" />
          </mxGeometry>
        </mxCell>
        <mxCell id="ny4pUltji_NZufVsD4t7-18" value="A" style="text;html=1;align=center;verticalAlign=middle;whiteSpace=wrap;rounded=0;fontStyle=1" parent="1" vertex="1">
          <mxGeometry x="280" y="560" width="30" height="20" as="geometry" />
        </mxCell>
        <mxCell id="ny4pUltji_NZufVsD4t7-19" value="B" style="text;html=1;align=center;verticalAlign=middle;whiteSpace=wrap;rounded=0;fontStyle=1" parent="1" vertex="1">
          <mxGeometry x="280" y="620" width="30" height="20" as="geometry" />
        </mxCell>
        <mxCell id="ny4pUltji_NZufVsD4t7-20" value="" style="edgeStyle=orthogonalEdgeStyle;rounded=0;orthogonalLoop=1;jettySize=auto;html=1;" parent="1" source="ny4pUltji_NZufVsD4t7-21" target="ny4pUltji_NZufVsD4t7-22" edge="1">
          <mxGeometry relative="1" as="geometry" />
        </mxCell>
        <mxCell id="ny4pUltji_NZufVsD4t7-21" value="&lt;span style=&quot;color: rgb(0, 0, 0); font-family: Helvetica; font-size: 12px; font-style: normal; font-variant-ligatures: normal; font-variant-caps: normal; font-weight: 400; letter-spacing: normal; orphans: 2; text-align: center; text-indent: 0px; text-transform: none; widows: 2; word-spacing: 0px; -webkit-text-stroke-width: 0px; white-space: normal; background-color: rgb(236, 236, 236); text-decoration-thickness: initial; text-decoration-style: initial; text-decoration-color: initial; float: none; display: inline !important;&quot;&gt;Model&lt;br&gt;Controller&lt;/span&gt;" style="text;whiteSpace=wrap;html=1;" parent="1" vertex="1">
          <mxGeometry x="440" y="660" width="70" height="40" as="geometry" />
        </mxCell>
        <mxCell id="ny4pUltji_NZufVsD4t7-22" value="&lt;div style=&quot;text-align: center;&quot;&gt;Base de données&lt;/div&gt;" style="text;whiteSpace=wrap;html=1;" parent="1" vertex="1">
          <mxGeometry x="590" y="660" width="70" height="40" as="geometry" />
        </mxCell>
        <mxCell id="ny4pUltji_NZufVsD4t7-23" value="&lt;br&gt;&lt;div&gt;Monolithique&lt;/div&gt;" style="text;html=1;align=center;verticalAlign=middle;whiteSpace=wrap;rounded=0;" parent="1" vertex="1">
          <mxGeometry x="360" y="-30" width="60" height="30" as="geometry" />
        </mxCell>
        <mxCell id="ny4pUltji_NZufVsD4t7-24" value="&lt;br&gt;&lt;div&gt;1 Tier&lt;/div&gt;" style="text;html=1;align=center;verticalAlign=middle;whiteSpace=wrap;rounded=0;" parent="1" vertex="1">
          <mxGeometry x="320" y="390" width="60" height="30" as="geometry" />
        </mxCell>
        <mxCell id="ny4pUltji_NZufVsD4t7-27" value="" style="rounded=1;whiteSpace=wrap;html=1;fillColor=#fff2cc;strokeColor=#d6b656;" parent="1" vertex="1">
          <mxGeometry x="280" y="880" width="430" height="360" as="geometry" />
        </mxCell>
        <mxCell id="ny4pUltji_NZufVsD4t7-28" value="" style="whiteSpace=wrap;html=1;aspect=fixed;" parent="1" vertex="1">
          <mxGeometry x="301" y="980" width="178" height="178" as="geometry" />
        </mxCell>
        <mxCell id="ny4pUltji_NZufVsD4t7-29" value="Client&amp;nbsp;" style="whiteSpace=wrap;html=1;aspect=fixed;" parent="1" vertex="1">
          <mxGeometry x="30" y="1010" width="80" height="80" as="geometry" />
        </mxCell>
        <mxCell id="ny4pUltji_NZufVsD4t7-30" value="Service" style="whiteSpace=wrap;html=1;aspect=fixed;" parent="1" vertex="1">
          <mxGeometry x="350" y="1010" width="80" height="80" as="geometry" />
        </mxCell>
        <mxCell id="ny4pUltji_NZufVsD4t7-31" value="" style="endArrow=classic;html=1;rounded=0;" parent="1" edge="1">
          <mxGeometry width="50" height="50" relative="1" as="geometry">
            <mxPoint x="130" y="1040" as="sourcePoint" />
            <mxPoint x="330" y="1040" as="targetPoint" />
          </mxGeometry>
        </mxCell>
        <mxCell id="ny4pUltji_NZufVsD4t7-32" value="" style="endArrow=classic;html=1;rounded=0;" parent="1" edge="1">
          <mxGeometry width="50" height="50" relative="1" as="geometry">
            <mxPoint x="320" y="1060" as="sourcePoint" />
            <mxPoint x="130" y="1061" as="targetPoint" />
          </mxGeometry>
        </mxCell>
        <mxCell id="ny4pUltji_NZufVsD4t7-33" value="A" style="text;html=1;align=center;verticalAlign=middle;whiteSpace=wrap;rounded=0;fontStyle=1" parent="1" vertex="1">
          <mxGeometry x="200" y="1010" width="30" height="20" as="geometry" />
        </mxCell>
        <mxCell id="ny4pUltji_NZufVsD4t7-34" value="B" style="text;html=1;align=center;verticalAlign=middle;whiteSpace=wrap;rounded=0;fontStyle=1" parent="1" vertex="1">
          <mxGeometry x="200" y="1070" width="30" height="20" as="geometry" />
        </mxCell>
        <mxCell id="ny4pUltji_NZufVsD4t7-35" value="" style="edgeStyle=orthogonalEdgeStyle;rounded=0;orthogonalLoop=1;jettySize=auto;html=1;" parent="1" source="ny4pUltji_NZufVsD4t7-36" target="ny4pUltji_NZufVsD4t7-37" edge="1">
          <mxGeometry relative="1" as="geometry" />
        </mxCell>
        <mxCell id="ny4pUltji_NZufVsD4t7-36" value="&lt;span style=&quot;color: rgb(0, 0, 0); font-family: Helvetica; font-size: 12px; font-style: normal; font-variant-ligatures: normal; font-variant-caps: normal; font-weight: 400; letter-spacing: normal; orphans: 2; text-align: center; text-indent: 0px; text-transform: none; widows: 2; word-spacing: 0px; -webkit-text-stroke-width: 0px; white-space: normal; background-color: rgb(236, 236, 236); text-decoration-thickness: initial; text-decoration-style: initial; text-decoration-color: initial; float: none; display: inline !important;&quot;&gt;Model&lt;br&gt;Controller&lt;/span&gt;" style="text;whiteSpace=wrap;html=1;" parent="1" vertex="1">
          <mxGeometry x="360" y="1110" width="70" height="40" as="geometry" />
        </mxCell>
        <mxCell id="ny4pUltji_NZufVsD4t7-38" value="" style="whiteSpace=wrap;html=1;aspect=fixed;" parent="1" vertex="1">
          <mxGeometry x="502" y="1070" width="88" height="88" as="geometry" />
        </mxCell>
        <mxCell id="ny4pUltji_NZufVsD4t7-37" value="&lt;div style=&quot;text-align: center;&quot;&gt;Base de données&lt;/div&gt;" style="text;whiteSpace=wrap;html=1;" parent="1" vertex="1">
          <mxGeometry x="510" y="1110" width="70" height="40" as="geometry" />
        </mxCell>
        <mxCell id="ny4pUltji_NZufVsD4t7-39" value="&lt;br&gt;&lt;div&gt;2 Tier&lt;/div&gt;" style="text;html=1;align=center;verticalAlign=middle;whiteSpace=wrap;rounded=0;" parent="1" vertex="1">
          <mxGeometry x="290" y="840" width="60" height="30" as="geometry" />
        </mxCell>
        <mxCell id="ny4pUltji_NZufVsD4t7-53" value="" style="rounded=1;whiteSpace=wrap;html=1;fillColor=#fff2cc;strokeColor=#d6b656;" parent="1" vertex="1">
          <mxGeometry x="280" y="1394" width="430" height="360" as="geometry" />
        </mxCell>
        <mxCell id="ny4pUltji_NZufVsD4t7-54" value="" style="whiteSpace=wrap;html=1;aspect=fixed;" parent="1" vertex="1">
          <mxGeometry x="321" y="1472" width="148" height="148" as="geometry" />
        </mxCell>
        <mxCell id="ny4pUltji_NZufVsD4t7-55" value="Client&amp;nbsp;" style="whiteSpace=wrap;html=1;aspect=fixed;" parent="1" vertex="1">
          <mxGeometry x="30" y="1510" width="80" height="80" as="geometry" />
        </mxCell>
        <mxCell id="ny4pUltji_NZufVsD4t7-56" value="Service Web&lt;br&gt;(Apache)" style="whiteSpace=wrap;html=1;aspect=fixed;" parent="1" vertex="1">
          <mxGeometry x="350" y="1510" width="80" height="80" as="geometry" />
        </mxCell>
        <mxCell id="ny4pUltji_NZufVsD4t7-57" value="" style="endArrow=classic;html=1;rounded=0;" parent="1" edge="1">
          <mxGeometry width="50" height="50" relative="1" as="geometry">
            <mxPoint x="130" y="1540" as="sourcePoint" />
            <mxPoint x="330" y="1540" as="targetPoint" />
          </mxGeometry>
        </mxCell>
        <mxCell id="ny4pUltji_NZufVsD4t7-58" value="" style="endArrow=classic;html=1;rounded=0;" parent="1" edge="1">
          <mxGeometry width="50" height="50" relative="1" as="geometry">
            <mxPoint x="320" y="1560" as="sourcePoint" />
            <mxPoint x="130" y="1561" as="targetPoint" />
          </mxGeometry>
        </mxCell>
        <mxCell id="ny4pUltji_NZufVsD4t7-59" value="A" style="text;html=1;align=center;verticalAlign=middle;whiteSpace=wrap;rounded=0;fontStyle=1" parent="1" vertex="1">
          <mxGeometry x="200" y="1510" width="30" height="20" as="geometry" />
        </mxCell>
        <mxCell id="ny4pUltji_NZufVsD4t7-60" value="B" style="text;html=1;align=center;verticalAlign=middle;whiteSpace=wrap;rounded=0;fontStyle=1" parent="1" vertex="1">
          <mxGeometry x="200" y="1570" width="30" height="20" as="geometry" />
        </mxCell>
        <mxCell id="ny4pUltji_NZufVsD4t7-63" value="" style="whiteSpace=wrap;html=1;aspect=fixed;" parent="1" vertex="1">
          <mxGeometry x="610" y="1620" width="88" height="88" as="geometry" />
        </mxCell>
        <mxCell id="ny4pUltji_NZufVsD4t7-64" value="&lt;div style=&quot;text-align: center;&quot;&gt;Base de données&lt;/div&gt;&lt;div style=&quot;text-align: center;&quot;&gt;(MySQL)&lt;/div&gt;" style="text;whiteSpace=wrap;html=1;" parent="1" vertex="1">
          <mxGeometry x="615" y="1644" width="80" height="40" as="geometry" />
        </mxCell>
        <mxCell id="ny4pUltji_NZufVsD4t7-65" value="&lt;br&gt;&lt;div&gt;3 Tier&amp;nbsp;&lt;/div&gt;&lt;div&gt;(Linux&lt;br&gt;Apache&lt;br&gt;MySQL&lt;br&gt;PHP)&lt;/div&gt;" style="text;html=1;align=center;verticalAlign=middle;whiteSpace=wrap;rounded=0;" parent="1" vertex="1">
          <mxGeometry x="210" y="1340" width="100" height="30" as="geometry" />
        </mxCell>
        <mxCell id="ny4pUltji_NZufVsD4t7-68" value="Middleware" style="whiteSpace=wrap;html=1;aspect=fixed;" parent="1" vertex="1">
          <mxGeometry x="500" y="1570" width="80" height="80" as="geometry" />
        </mxCell>
        <mxCell id="ny4pUltji_NZufVsD4t7-69" value="Model&lt;br&gt;Controller - Application&lt;br&gt;(PHP)" style="whiteSpace=wrap;html=1;aspect=fixed;" parent="1" vertex="1">
          <mxGeometry x="374" y="1650" width="80" height="80" as="geometry" />
        </mxCell>
        <mxCell id="ny4pUltji_NZufVsD4t7-70" value="" style="endArrow=classic;startArrow=classic;html=1;rounded=0;entryX=0.5;entryY=0;entryDx=0;entryDy=0;exitX=0.993;exitY=0.432;exitDx=0;exitDy=0;exitPerimeter=0;" parent="1" source="ny4pUltji_NZufVsD4t7-54" target="ny4pUltji_NZufVsD4t7-68" edge="1">
          <mxGeometry width="50" height="50" relative="1" as="geometry">
            <mxPoint x="480" y="1470" as="sourcePoint" />
            <mxPoint x="530" y="1420" as="targetPoint" />
          </mxGeometry>
        </mxCell>
        <mxCell id="ny4pUltji_NZufVsD4t7-71" value="" style="endArrow=classic;startArrow=classic;html=1;rounded=0;entryX=0;entryY=0.25;entryDx=0;entryDy=0;exitX=0.993;exitY=0.432;exitDx=0;exitDy=0;exitPerimeter=0;" parent="1" target="ny4pUltji_NZufVsD4t7-64" edge="1">
          <mxGeometry width="50" height="50" relative="1" as="geometry">
            <mxPoint x="580" y="1590" as="sourcePoint" />
            <mxPoint x="663" y="1626" as="targetPoint" />
          </mxGeometry>
        </mxCell>
        <mxCell id="ny4pUltji_NZufVsD4t7-72" value="" style="endArrow=classic;startArrow=classic;html=1;rounded=0;entryX=0;entryY=0.75;entryDx=0;entryDy=0;exitX=0.993;exitY=0.432;exitDx=0;exitDy=0;exitPerimeter=0;" parent="1" target="ny4pUltji_NZufVsD4t7-68" edge="1">
          <mxGeometry width="50" height="50" relative="1" as="geometry">
            <mxPoint x="454" y="1690" as="sourcePoint" />
            <mxPoint x="537" y="1726" as="targetPoint" />
          </mxGeometry>
        </mxCell>
        <mxCell id="ny4pUltji_NZufVsD4t7-73" value="" style="rounded=1;whiteSpace=wrap;html=1;fillColor=#fff2cc;strokeColor=#d6b656;" parent="1" vertex="1">
          <mxGeometry x="530" y="1840" width="130" height="120" as="geometry" />
        </mxCell>
        <mxCell id="ny4pUltji_NZufVsD4t7-75" value="Client&amp;nbsp;" style="whiteSpace=wrap;html=1;aspect=fixed;" parent="1" vertex="1">
          <mxGeometry x="40" y="1970" width="80" height="80" as="geometry" />
        </mxCell>
        <mxCell id="ny4pUltji_NZufVsD4t7-76" value="Service" style="whiteSpace=wrap;html=1;aspect=fixed;" parent="1" vertex="1">
          <mxGeometry x="554" y="1860" width="80" height="80" as="geometry" />
        </mxCell>
        <mxCell id="ny4pUltji_NZufVsD4t7-77" value="" style="endArrow=classic;html=1;rounded=0;" parent="1" edge="1">
          <mxGeometry width="50" height="50" relative="1" as="geometry">
            <mxPoint x="140" y="2000" as="sourcePoint" />
            <mxPoint x="340" y="2000" as="targetPoint" />
          </mxGeometry>
        </mxCell>
        <mxCell id="ny4pUltji_NZufVsD4t7-78" value="" style="endArrow=classic;html=1;rounded=0;" parent="1" edge="1">
          <mxGeometry width="50" height="50" relative="1" as="geometry">
            <mxPoint x="330" y="2020" as="sourcePoint" />
            <mxPoint x="140" y="2021" as="targetPoint" />
          </mxGeometry>
        </mxCell>
        <mxCell id="ny4pUltji_NZufVsD4t7-79" value="A" style="text;html=1;align=center;verticalAlign=middle;whiteSpace=wrap;rounded=0;fontStyle=1" parent="1" vertex="1">
          <mxGeometry x="210" y="1970" width="30" height="20" as="geometry" />
        </mxCell>
        <mxCell id="ny4pUltji_NZufVsD4t7-80" value="B" style="text;html=1;align=center;verticalAlign=middle;whiteSpace=wrap;rounded=0;fontStyle=1" parent="1" vertex="1">
          <mxGeometry x="210" y="2030" width="30" height="20" as="geometry" />
        </mxCell>
        <mxCell id="ny4pUltji_NZufVsD4t7-81" value="" style="whiteSpace=wrap;html=1;aspect=fixed;" parent="1" vertex="1">
          <mxGeometry x="620" y="2080" width="88" height="88" as="geometry" />
        </mxCell>
        <mxCell id="ny4pUltji_NZufVsD4t7-82" value="&lt;div style=&quot;text-align: center;&quot;&gt;Base de données&lt;/div&gt;" style="text;whiteSpace=wrap;html=1;" parent="1" vertex="1">
          <mxGeometry x="620" y="2110" width="70" height="40" as="geometry" />
        </mxCell>
        <mxCell id="ny4pUltji_NZufVsD4t7-83" value="Microservices" style="text;html=1;align=center;verticalAlign=middle;whiteSpace=wrap;rounded=0;" parent="1" vertex="1">
          <mxGeometry x="300" y="1800" width="60" height="30" as="geometry" />
        </mxCell>
        <mxCell id="ny4pUltji_NZufVsD4t7-84" value="API&lt;div&gt;(https)&lt;/div&gt;" style="whiteSpace=wrap;html=1;aspect=fixed;" parent="1" vertex="1">
          <mxGeometry x="360" y="1950" width="80" height="80" as="geometry" />
        </mxCell>
        <mxCell id="ny4pUltji_NZufVsD4t7-85" value="Application&lt;br&gt;Functions" style="whiteSpace=wrap;html=1;aspect=fixed;" parent="1" vertex="1">
          <mxGeometry x="380" y="2140" width="80" height="80" as="geometry" />
        </mxCell>
        <mxCell id="ny4pUltji_NZufVsD4t7-86" value="" style="endArrow=classic;startArrow=classic;html=1;rounded=0;entryX=0.5;entryY=0;entryDx=0;entryDy=0;exitX=0;exitY=0.5;exitDx=0;exitDy=0;" parent="1" source="ny4pUltji_NZufVsD4t7-76" target="ny4pUltji_NZufVsD4t7-84" edge="1">
          <mxGeometry width="50" height="50" relative="1" as="geometry">
            <mxPoint x="652.9639999999999" y="1889.9360000000001" as="sourcePoint" />
            <mxPoint x="540" y="1880" as="targetPoint" />
          </mxGeometry>
        </mxCell>
        <mxCell id="ny4pUltji_NZufVsD4t7-87" value="" style="endArrow=classic;startArrow=classic;html=1;rounded=0;entryX=0;entryY=0.25;entryDx=0;entryDy=0;" parent="1" source="ny4pUltji_NZufVsD4t7-84" target="ny4pUltji_NZufVsD4t7-82" edge="1">
          <mxGeometry width="50" height="50" relative="1" as="geometry">
            <mxPoint x="590" y="2050" as="sourcePoint" />
            <mxPoint x="673" y="2086" as="targetPoint" />
          </mxGeometry>
        </mxCell>
        <mxCell id="ny4pUltji_NZufVsD4t7-88" value="" style="endArrow=classic;startArrow=classic;html=1;rounded=0;entryX=0.5;entryY=1;entryDx=0;entryDy=0;exitX=0.5;exitY=0;exitDx=0;exitDy=0;" parent="1" source="ny4pUltji_NZufVsD4t7-85" target="ny4pUltji_NZufVsD4t7-84" edge="1">
          <mxGeometry width="50" height="50" relative="1" as="geometry">
            <mxPoint x="464" y="2150" as="sourcePoint" />
            <mxPoint x="547" y="2186" as="targetPoint" />
          </mxGeometry>
        </mxCell>
        <mxCell id="ny4pUltji_NZufVsD4t7-92" value="" style="endArrow=classic;html=1;rounded=0;dashed=1;dashPattern=1 4;" parent="1" edge="1">
          <mxGeometry width="50" height="50" relative="1" as="geometry">
            <mxPoint x="150" y="1979.5" as="sourcePoint" />
            <mxPoint x="520" y="1870" as="targetPoint" />
          </mxGeometry>
        </mxCell>
        <mxCell id="ny4pUltji_NZufVsD4t7-93" value="" style="endArrow=classic;html=1;rounded=0;dashed=1;dashPattern=1 4;" parent="1" edge="1">
          <mxGeometry width="50" height="50" relative="1" as="geometry">
            <mxPoint x="150" y="2040" as="sourcePoint" />
            <mxPoint x="340" y="2150" as="targetPoint" />
          </mxGeometry>
        </mxCell>
        <mxCell id="ny4pUltji_NZufVsD4t7-94" value="" style="endArrow=classic;html=1;rounded=0;dashed=1;dashPattern=1 4;" parent="1" edge="1">
          <mxGeometry width="50" height="50" relative="1" as="geometry">
            <mxPoint x="140" y="2010" as="sourcePoint" />
            <mxPoint x="580" y="2090" as="targetPoint" />
          </mxGeometry>
        </mxCell>
      </root>
    </mxGraphModel>
  </diagram>
</mxfile>
